<svg fill="#FFFFFF" xmlns="http://www.w3.org/2000/svg"  viewBox="0 0 48 48" width="48px" height="48px"><path d="M 24 4 C 20.050757 4 16.35566 5.1492866 13.251953 7.1308594 A 1.50015 1.50015 0 1 0 14.865234 9.6601562 C 17.503527 7.9757291 20.631243 7 24 7 C 33.406292 7 41 14.593708 41 24 C 41 26.3016 40.544342 28.488929 39.71875 30.486328 A 1.5005319 1.5005319 0 1 0 42.492188 31.632812 C 43.464596 29.280212 44 26.6984 44 24 C 44 12.972292 35.027708 4 24 4 z M 26.818359 12.445312 C 21.232359 12.445312 17.898437 15.982203 17.898438 21.908203 L 17.898438 23.621094 L 17.060547 23.621094 C 15.403547 23.621094 14.060547 24.964094 14.060547 26.621094 L 14.060547 30.697266 C 14.060547 32.354266 15.403547 33.697266 17.060547 33.697266 L 17.896484 33.697266 L 17.896484 39.855469 C 11.520025 37.406749 7 31.250821 7 24 C 7 21.060367 7.7425327 18.306387 9.0507812 15.898438 A 1.50015 1.50015 0 0 0 7.7167969 13.664062 A 1.50015 1.50015 0 0 0 6.4140625 14.466797 C 4.8743112 17.300848 4 20.553633 4 24 C 4 35.027708 12.972292 44 24 44 C 28.824586 44 33.26657 42.284695 36.722656 39.431641 A 1.50015 1.50015 0 1 0 34.8125 37.119141 C 31.872586 39.546086 28.115414 41 24 41 C 22.938221 41 21.903758 40.890279 20.896484 40.705078 L 20.896484 31.697266 C 20.896484 31.145266 20.448484 30.697266 19.896484 30.697266 L 17.060547 30.697266 L 17.060547 26.619141 L 19.898438 26.619141 C 20.450437 26.619141 20.898438 26.171141 20.898438 25.619141 L 20.898438 21.90625 C 20.898438 17.41525 23.085359 15.443359 26.818359 15.443359 C 28.605359 15.443359 29.552 15.576719 30 15.636719 L 30 19.193359 L 27.453125 19.193359 C 25.869125 19.193359 25.316406 20.696625 25.316406 22.390625 L 25.316406 25.619141 C 25.316406 26.171141 25.764406 26.619141 26.316406 26.619141 L 29.960938 26.619141 L 29.330078 30.695312 L 26.316406 30.695312 C 25.764406 30.695312 25.316406 31.143313 25.316406 31.695312 L 25.316406 35.847656 C 25.316406 36.681656 26.002938 37.362078 26.835938 37.330078 C 26.845938 37.330078 26.855234 37.330078 26.865234 37.330078 C 27.671234 37.300078 28.314453 36.652703 28.314453 35.845703 L 28.314453 33.695312 L 29.328125 33.695312 C 30.808125 33.695312 32.068922 32.617297 32.294922 31.154297 L 32.904297 27.207031 C 32.954297 26.954031 32.972078 26.691922 32.955078 26.419922 C 32.852078 24.812922 31.406875 23.617188 29.796875 23.617188 L 28.316406 23.617188 L 28.316406 22.388672 C 28.392406 22.314672 28.435719 22.271312 28.511719 22.195312 L 30 22.195312 C 31.657 22.195312 33 20.852313 33 19.195312 L 33 15.636719 C 33 14.134719 31.890344 12.865063 30.402344 12.664062 C 29.862344 12.591062 28.780359 12.445312 26.818359 12.445312 z"/></svg>