<svg fill="#FFFFFF" xmlns="http://www.w3.org/2000/svg"  viewBox="0 0 48 48" width="48px" height="48px"><path d="M 24 4 C 21.317817 4 18.751504 4.5299033 16.410156 5.4902344 A 1.50015 1.50015 0 1 0 17.548828 8.265625 C 19.53748 7.4499561 21.712183 7 24 7 C 33.406292 7 41 14.593708 41 24 C 41 28.849115 38.979874 33.20515 35.732422 36.302734 A 1.50015 1.50015 0 1 0 37.802734 38.472656 C 41.619282 34.832241 44 29.684885 44 24 C 44 12.972292 35.027708 4 24 4 z M 10.146484 10.251953 A 1.50015 1.50015 0 0 0 8.9960938 10.775391 C 5.8881382 14.298317 4 18.937932 4 24 C 4 35.027708 12.972292 44 24 44 C 26.34235 44 28.594945 43.595372 30.6875 42.853516 A 1.5001834 1.5001834 0 1 0 29.685547 40.025391 C 27.908102 40.655534 25.99765 41 24 41 C 14.593708 41 7 33.406292 7 24 C 7 19.682068 8.602049 15.75684 11.246094 12.759766 A 1.50015 1.50015 0 0 0 10.146484 10.251953 z M 15.5 13 A 2.5 2.5 0 0 0 15.5 18 A 2.5 2.5 0 0 0 15.5 13 z M 14 20 C 13.447 20 13 20.447 13 21 L 13 34 C 13 34.553 13.447 35 14 35 L 17 35 C 17.553 35 18 34.553 18 34 L 18 21 C 18 20.447 17.553 20 17 20 L 14 20 z M 21 20 C 20.447 20 20 20.447 20 21 L 20 34 C 20 34.553 20.447 35 21 35 L 24 35 C 24.553 35 25 34.553 25 34 L 25 26.5 C 25 25.121 26.121 24 27.5 24 C 28.879 24 30 25.121 30 26.5 L 30 34 C 30 34.553 30.447 35 31 35 L 34 35 C 34.553 35 35 34.553 35 34 L 35 26 C 35 22.691 32.309 20 29 20 C 27.462 20 26.063 20.586016 25 21.541016 L 25 21 C 25 20.447 24.553 20 24 20 L 21 20 z"/></svg>