<?xml version="1.0" encoding="utf-8"?>
<!-- Generator: Adobe Illustrator 23.0.3, SVG Export Plug-In . SVG Version: 6.00 Build 0)  -->
<svg version="1.1" id="Layer_1" xmlns="http://www.w3.org/2000/svg" xmlns:xlink="http://www.w3.org/1999/xlink" x="0px" y="0px"
	 viewBox="0 0 48 48" style="enable-background:new 0 0 48 48;" xml:space="preserve">
<style type="text/css">
	.st0{fill:#90CAF9;}
	.st1{fill:#F48FB1;}
	.st2{fill:#8CE7F2;}
	.st3{fill:none;stroke:#000000;stroke-width:3;stroke-linecap:round;stroke-linejoin:round;stroke-miterlimit:10;}
	.st4{fill:none;stroke:#000000;stroke-width:3;stroke-linecap:round;stroke-miterlimit:10;}
	.st5{fill:#9FA8DA;}
	.st6{fill:none;stroke:#000000;stroke-width:3;stroke-miterlimit:10;}
	.st7{fill:none;stroke:#000000;stroke-width:3;stroke-linecap:round;stroke-linejoin:round;}
	.st8{fill:none;stroke:#000000;stroke-width:3;stroke-linecap:round;stroke-linejoin:round;stroke-miterlimit:5;}
	.st9{fill:#FFE082;}
	.st10{fill:#CCCCCC;}
	.st11{fill:none;stroke:#18193F;stroke-width:3;stroke-linecap:round;stroke-linejoin:round;stroke-miterlimit:10;}
	.st12{fill:none;stroke:#18193F;stroke-width:3;stroke-miterlimit:10;}
	.st13{fill:none;stroke:#18193F;stroke-width:3;stroke-linecap:round;stroke-miterlimit:10;}
	.st14{fill:none;stroke:#18193F;stroke-width:3;stroke-linecap:round;stroke-linejoin:round;}
	.st15{fill:none;stroke:#18193F;stroke-width:3;stroke-linecap:round;stroke-linejoin:round;stroke-miterlimit:5;}
	.st16{fill:#18193F;}
	.st17{fill:none;stroke:#000000;stroke-width:3;stroke-linecap:round;}
	.st18{fill:none;stroke:#000000;stroke-width:3;stroke-miterlimit:20;}
	.st19{fill:none;stroke:#000000;stroke-width:3;stroke-linejoin:round;}
	.st20{fill:none;stroke:#000000;stroke-width:2.5;stroke-linecap:round;}
	.st21{fill:none;stroke:#000000;stroke-width:2.5;stroke-linecap:round;stroke-linejoin:round;}
	.st22{fill:#FFAB91;}
	.st23{fill:#A5D6A7;}
	.st24{fill:none;stroke:#18193F;stroke-width:3;stroke-linecap:round;}
	.st25{fill:none;stroke:#18193F;stroke-width:3;stroke-linejoin:round;}
	.st26{fill:none;stroke:#18193F;stroke-width:3;stroke-miterlimit:20;}
	.st27{fill:none;stroke:#18193F;stroke-width:2.5;stroke-linecap:round;}
	.st28{fill:none;stroke:#18193F;stroke-width:2.5;stroke-linecap:round;stroke-linejoin:round;}
	.st29{fill:none;stroke:#000000;stroke-width:3;stroke-linejoin:round;stroke-miterlimit:10;}
	.st30{fill:none;stroke:#18193F;stroke-width:3;stroke-linejoin:round;stroke-miterlimit:10;}
</style>
<path class="st3" d="M40.5,31.7v4.8c0,2.2-1.8,4-4,4h-25c-2.2,0-4-1.8-4-4V24.9"/>
<path class="st3" d="M7.5,19.2v-7.7c0-2.2,1.8-4,4-4h25c2.2,0,4,1.8,4,4v14"/>
<circle cx="15.5" cy="15.5" r="2.5"/>
<path d="M17,35h-3c-0.6,0-1-0.4-1-1V21c0-0.6,0.4-1,1-1h3c0.6,0,1,0.4,1,1v13C18,34.6,17.6,35,17,35z"/>
<path d="M29,20c-1.5,0-2.9,0.6-4,1.5V21c0-0.6-0.4-1-1-1h-3c-0.6,0-1,0.4-1,1v13c0,0.6,0.4,1,1,1h3c0.6,0,1-0.4,1-1v-7.5
	c0-1.4,1.1-2.5,2.5-2.5s2.5,1.1,2.5,2.5V34c0,0.6,0.4,1,1,1h3c0.6,0,1-0.4,1-1v-8C35,22.7,32.3,20,29,20z"/>
</svg>