<svg fill="#FFFFFF" xmlns="http://www.w3.org/2000/svg"  viewBox="0 0 48 48" width="48px" height="48px"><path d="M 24 4 C 12.972292 4 4 12.972292 4 24 C 4 29.641578 6.3443418 34.755472 10.111328 38.390625 A 1.50015 1.50015 0 1 0 12.195312 36.232422 C 8.9902995 33.139575 7 28.812422 7 24 C 7 14.593708 14.593708 7 24 7 A 1.50015 1.50015 0 1 0 24 4 z M 34.154297 7.0371094 A 1.50015 1.50015 0 0 0 33.349609 9.8007812 C 37.958578 12.841873 41 18.054388 41 24 C 41 33.406292 33.406292 41 24 41 C 22.473484 41 20.997988 40.799455 19.59375 40.423828 A 1.50015 1.50015 0 1 0 18.820312 43.322266 C 20.474075 43.764639 22.210516 44 24 44 C 35.027708 44 44 35.027708 44 24 C 44 17.029612 40.422984 10.873783 35.001953 7.296875 A 1.50015 1.50015 0 0 0 34.154297 7.0371094 z M 29.066406 15.769531 C 26.272406 15.769531 24 18.041938 24 20.835938 L 24 21.105469 C 18.303 20.582469 16.703719 16.787094 16.636719 16.621094 C 16.568719 16.454094 16.414328 16.3365 16.236328 16.3125 C 16.055328 16.2865 15.879484 16.363812 15.771484 16.507812 C 15.734484 16.556812 14.865234 17.734187 14.865234 19.492188 C 14.865234 20.885188 15.380547 21.889453 15.935547 22.564453 C 15.383547 22.429453 15.055781 22.270578 15.050781 22.267578 C 14.887781 22.188578 14.696875 22.203688 14.546875 22.304688 C 14.397875 22.407688 14.314078 22.581719 14.330078 22.761719 C 14.341078 22.878719 14.592531 25.292328 17.144531 26.861328 L 16.320312 27.066406 C 16.168312 27.104406 16.042469 27.212469 15.980469 27.355469 C 15.918469 27.500469 15.929813 27.665781 16.007812 27.800781 C 16.049813 27.874781 16.965812 29.431859 19.507812 30.380859 C 18.572813 30.811859 16.882969 31.349609 14.292969 31.349609 C 14.096969 31.349609 13.918891 31.463578 13.837891 31.642578 C 13.755891 31.821578 13.787016 32.032688 13.916016 32.179688 C 13.999016 32.274687 16.006344 34.498047 21.277344 34.498047 C 30.048344 34.498047 34.134766 26.346938 34.134766 20.835938 C 34.134766 20.763938 34.116281 20.695047 34.113281 20.623047 C 35.475281 19.392047 35.972141 18.432672 35.994141 18.388672 C 36.096141 18.185672 36.058391 17.939391 35.900391 17.775391 C 35.742391 17.611391 35.499016 17.564156 35.291016 17.660156 L 35.203125 17.701172 C 35.128125 17.735172 35.054516 17.770687 34.978516 17.804688 C 35.197516 17.455687 35.370234 17.082266 35.490234 16.697266 C 35.557234 16.484266 35.484594 16.251281 35.308594 16.113281 C 35.132594 15.975281 34.888266 15.961125 34.697266 16.078125 C 33.917266 16.552125 33.175813 16.856109 32.382812 17.037109 C 31.491813 16.258109 30.339406 15.769531 29.066406 15.769531 z"/></svg>