<?xml version="1.0" encoding="utf-8"?>
<!-- Generator: Adobe Illustrator 23.0.3, SVG Export Plug-In . SVG Version: 6.00 Build 0)  -->
<svg version="1.1" id="Layer_1" xmlns="http://www.w3.org/2000/svg" xmlns:xlink="http://www.w3.org/1999/xlink" x="0px" y="0px"
	 viewBox="0 0 48 48" style="enable-background:new 0 0 48 48;" xml:space="preserve">
<style type="text/css">
	.st0{fill:#9FA8DA;}
	.st1{fill:#FFE082;}
	.st2{fill:#8CE7F2;}
	.st3{fill:none;stroke:#000000;stroke-width:3;stroke-linecap:round;stroke-linejoin:round;stroke-miterlimit:10;}
	.st4{fill:none;stroke:#000000;stroke-width:3;stroke-linecap:round;stroke-linejoin:round;}
	.st5{fill:none;stroke:#000000;stroke-width:3;}
	.st6{fill:none;stroke:#000000;stroke-width:3;stroke-linecap:round;}
	.st7{fill:none;stroke:#000000;stroke-width:3;stroke-miterlimit:10;}
	.st8{fill:none;stroke:#000000;stroke-width:3;stroke-linecap:round;stroke-miterlimit:10;}
	.st9{fill:none;stroke:#000000;stroke-width:3;stroke-linejoin:round;stroke-miterlimit:10;}
	.st10{fill:#A5D6A7;}
	.st11{fill:#F48FB1;}
	.st12{fill:#90CAF9;}
	.st13{fill:#FFAB91;}
	.st14{fill:#18193F;}
	.st15{fill:none;stroke:#18193F;stroke-width:3;stroke-linecap:round;stroke-linejoin:round;}
	.st16{fill:none;stroke:#18193F;stroke-width:3;stroke-linecap:round;stroke-linejoin:round;stroke-miterlimit:10;}
	.st17{fill:none;stroke:#18193F;stroke-width:3;}
	.st18{fill:none;stroke:#18193F;stroke-width:3;stroke-linecap:round;}
	.st19{fill:none;stroke:#18193F;stroke-width:3;stroke-miterlimit:10;}
	.st20{fill:none;stroke:#18193F;stroke-width:3;stroke-linecap:round;stroke-miterlimit:10;}
	.st21{fill:none;stroke:#18193F;stroke-width:3;stroke-linejoin:round;stroke-miterlimit:10;}
</style>
<path d="M44.7,10.3c-0.3-0.3-0.7-0.4-1.1-0.2l-0.2,0.1c-0.1,0.1-0.3,0.1-0.4,0.2c0.4-0.6,0.7-1.3,1-2.1c0.1-0.4,0-0.8-0.3-1.1
	s-0.8-0.3-1.1-0.1c-1.6,1-3.1,1.6-4.7,1.9L37,9.2c2.1,1.5,3.5,4,3.5,6.8c0,0.1,0,0.3,0,0.4l0.1-0.1c3.1-2.6,4.2-4.7,4.3-4.8
	C45.1,11.1,45,10.6,44.7,10.3z"/>
<path class="st4" d="M16.5,33.5c0,0-3.5,3-12,3c0,0,3.5,4,13,4c6.6,0,11.6-2.5,15.2-6"/>
<path class="st4" d="M12.9,14.1C9.2,11.6,8,8.5,8,8.5s-1.5,2-1.5,5c0,5,4,7,4,7c-3,0-5-1-5-1s0.5,5.5,7,8l-4,1c0,0,2,3.5,8,5"/>
<path class="st4" d="M37,28.8c2.4-4.3,3.5-9.1,3.5-12.8c0-4.7-3.8-8.5-8.5-8.5s-8.5,3.8-8.5,8.5v1.5c-2-0.1-3.7-0.4-5.2-0.8"/>
</svg>